<?xml version="1.0" standalone="no"?>
<!DOCTYPE svg PUBLIC "-//W3C//DTD SVG 20010904//EN"
 "http://www.w3.org/TR/2001/REC-SVG-20010904/DTD/svg10.dtd">
<svg version="1.0" xmlns="http://www.w3.org/2000/svg" viewBox="0 0 568.000000 568.000000"
 preserveAspectRatio="xMidYMid meet">
<metadata>
Created by potrace 1.16, written by Peter Selinger 2001-2019
</metadata>
<g transform="translate(0.000000,568.000000) scale(0.100000,-0.100000)"
fill="#ffffff" stroke="none">
<path d="M2052 4032 c-18 -53 -36 -116 -39 -140 -6 -46 -9 -48 -38 -28 -26 17
-196 76 -222 76 -16 0 -24 -14 -43 -76 -72 -244 -14 -522 147 -705 100 -113
191 -173 340 -225 l81 -28 -83 -88 c-311 -331 -409 -766 -269 -1201 14 -41 36
-61 46 -39 2 4 30 27 63 51 84 62 187 172 250 266 59 89 132 236 149 303 l11
44 125 3 c144 3 209 18 323 75 157 79 259 185 352 368 36 70 61 105 103 142
56 50 141 91 192 92 23 1 118 -56 333 -200 37 -25 69 -43 71 -41 2 2 -57 74
-130 159 -74 85 -134 162 -134 170 0 21 -75 149 -108 184 -41 43 -137 104
-195 124 -38 12 -83 17 -167 17 -128 -1 -179 -16 -271 -82 -26 -18 -49 -33
-51 -33 -3 0 -8 19 -12 42 -9 53 -50 176 -84 248 -76 159 -224 339 -367 445
-62 46 -265 154 -320 169 -18 5 -24 -6 -53 -92z m153 -72 c122 -52 314 -220
399 -349 67 -100 91 -148 126 -246 28 -79 65 -234 58 -240 -69 -55 -216 -106
-330 -112 -128 -8 -128 -8 -198 109 -108 183 -153 342 -154 543 0 72 6 154 13
185 23 99 32 130 36 130 2 0 24 -9 50 -20z m-285 -193 l65 -32 7 -100 c10
-139 24 -215 60 -325 32 -99 61 -165 92 -212 25 -38 10 -35 -63 12 -122 79
-224 213 -269 352 -17 56 -25 294 -10 331 10 22 28 18 118 -26z m1468 -577
c57 -30 152 -119 152 -141 0 -5 -12 -11 -27 -14 -65 -14 -167 -60 -213 -96
-27 -21 -74 -70 -105 -108 -64 -79 -133 -128 -208 -148 -56 -14 -127 -17 -127
-5 1 4 7 36 15 72 8 36 18 121 21 190 l6 125 42 43 c85 90 164 122 291 119 81
-3 97 -6 153 -37z m-598 -243 c0 -81 -35 -247 -52 -247 -31 0 -281 166 -279
186 0 5 31 14 68 21 103 18 192 46 233 73 25 17 30 12 30 -33z m-345 -200 c32
-30 115 -82 185 -117 36 -18 67 -34 69 -36 9 -7 -22 -62 -57 -100 -53 -59 -88
-80 -197 -119 -53 -19 -110 -42 -128 -52 -39 -20 -132 -87 -170 -122 -42 -40
-124 -153 -146 -200 -25 -57 -34 -38 -26 57 13 154 34 244 89 370 50 115 108
202 206 305 l83 87 36 -27 c20 -15 45 -36 56 -46z m595 -176 c0 -18 -136 -123
-197 -151 -76 -35 -154 -62 -161 -56 -2 3 15 27 40 54 24 28 55 70 68 95 l24
45 70 0 c70 1 114 6 124 17 9 9 32 6 32 -4z m-730 -396 c0 -3 -16 -38 -36 -77
-49 -97 -113 -191 -174 -258 l-51 -55 6 39 c9 53 45 133 93 204 53 77 162 176
162 147z"/>
</g>
</svg>
